<?xml version="1.0" encoding="iso-8859-1"?>
<!-- Generator: Adobe Illustrator 19.0.0, SVG Export Plug-In . SVG Version: 6.00 Build 0)  -->
<svg version="1.1" id="Capa_1" xmlns="http://www.w3.org/2000/svg" xmlns:xlink="http://www.w3.org/1999/xlink" x="0px" y="0px"
	 viewBox="0 0 480.078 480.078" style="enable-background:new 0 0 480.078 480.078;" xml:space="preserve">
<linearGradient id="SVGID_1_" gradientUnits="userSpaceOnUse" x1="-26.7845" y1="556.7033" x2="-26.7845" y2="618.4143" gradientTransform="matrix(8 0 0 -8 454.3148 4941.7046)">
	<stop  offset="0" style="stop-color:#006DF0"/>
	<stop  offset="1" style="stop-color:#00E7F0"/>
</linearGradient>
<path style="fill:url(#SVGID_1_);" d="M477.834,234.422L245.754,2.342c-3.124-3.123-8.188-3.123-11.312,0L2.362,234.422
	c-3.124,3.13-3.118,8.2,0.012,11.324s8.2,3.118,11.324-0.012l26.4-26.456v252.8c0,4.418,3.582,8,8,8h384c4.418,0,8-3.582,8-8v-252.8
	l26.4,26.4c3.178,3.069,8.242,2.982,11.312-0.196c2.994-3.1,2.994-8.015,0-11.116L477.834,234.422z M296.098,464.078h-112v-120
	c0-30.928,25.072-56,56-56s56,25.072,56,56l0,0V464.078z M424.098,464.078h-112v-120c0-39.764-32.236-72-72-72s-72,32.236-72,72v120
	h-112v-260.8l184-184l184,184V464.078z"/>
<g>
</g>
<g>
</g>
<g>
</g>
<g>
</g>
<g>
</g>
<g>
</g>
<g>
</g>
<g>
</g>
<g>
</g>
<g>
</g>
<g>
</g>
<g>
</g>
<g>
</g>
<g>
</g>
<g>
</g>
</svg>
